ffmpeg version N-55863-g9f38fac053-static https://johnvansickle.com/ffmpeg/  Copyright (c) 2000-2021 the FFmpeg developers
  built with gcc 8 (Debian 8.3.0-6)
  configuration: --enable-gpl --enable-version3 --enable-static --disable-debug --disable-ffplay --disable-indev=sndio --disable-outdev=sndio --cc=gcc --enable-fontconfig --enable-frei0r --enable-gnutls --enable-gmp --enable-libgme --enable-gray --enable-libaom --enable-libfribidi --enable-libass --enable-libvmaf --enable-libfreetype --enable-libmp3lame --enable-libopencore-amrnb --enable-libopencore-amrwb --enable-libopenjpeg --enable-librubberband --enable-libsoxr --enable-libspeex --enable-libsrt --enable-libvorbis --enable-libopus --enable-libtheora --enable-libvidstab --enable-libvo-amrwbenc --enable-libvpx --enable-libwebp --enable-libx264 --enable-libx265 --enable-libxml2 --enable-libdav1d --enable-libxvid --enable-libzvbi --enable-libzimg
  libavutil      56. 64.100 / 56. 64.100
  libavcodec     58.119.100 / 58.119.100
  libavformat    58. 65.101 / 58. 65.101
  libavdevice    58. 11.103 / 58. 11.103
  libavfilter     7.100.100 /  7.100.100
  libswscale      5.  8.100 /  5.  8.100
  libswresample   3.  8.100 /  3.  8.100
  libpostproc    55.  8.100 / 55.  8.100
Input #0, mov,mp4,m4a,3gp,3g2,mj2, from '/home/yiaapc5/public_html/f_data/data_userfiles/user_uploads/2601493340/v/1612460641.mp4':
  Metadata:
    major_brand     : mp42
    minor_version   : 0
    compatible_brands: isom
    creation_time   : 2013-01-17T19:28:20.000000Z
  Duration: 00:02:03.16, start: 0.000000, bitrate: 3007 kb/s
    Stream #0:0(eng): Video: h264 (Main) (avc1 / 0x31637661), yuv420p(tv), 1280x720 [SAR 1:1 DAR 16:9], 2943 kb/s, 23.98 fps, 23.98 tbr, 24k tbn, 47.95 tbc (default)
    Metadata:
      creation_time   : 2013-01-17T19:28:20.000000Z
      handler_name    : MP4 Video Media Handler
      vendor_id       : [0][0][0][0]
      encoder         : AVC Coding
    Stream #0:1(eng): Audio: aac (LC) (mp4a / 0x6134706D), 44100 Hz, stereo, fltp, 61 kb/s (default)
    Metadata:
      creation_time   : 2013-01-17T19:28:20.000000Z
      handler_name    : MP4 Sound Media Handler
      vendor_id       : [0][0][0][0]
Codec AVOption rc_eq (Set rate control equation. When computing the expression, besides the standard functions defined in the section 'Expression Evaluation', the following functions are available: bits2qp(bits), qp2bits(qp). Also the following constants are available: iTex pTex tex mv fCode iCount mcVar var isI isP isB avgQP qComp avgIITex avgPITex avgPPTex avgBPTex avgTex.) specified for output file #0 (/home/yiaapc5/public_html/f_data/data_userfiles/user_media/2601493340/v/39811d3f3a1146fb7a129b667b09074f.mob.nomob.mp4) has not been used for any stream. The most likely reason is either wrong type (e.g. a video option with no video streams) or that it is a private option of some encoder which was not actually used for any stream.
Stream mapping:
  Stream #0:0 -> #0:0 (h264 (native) -> h264 (libx264))
  Stream #0:1 -> #0:1 (aac (native) -> aac (native))
Press [q] to stop, [?] for help
[libx264 @ 0x60e7f80] Application has requested 32 threads. Using a thread count greater than 16 is not recommended.
[libx264 @ 0x60e7f80] using SAR=136/135
[libx264 @ 0x60e7f80] frame MB size (30x17) > level limit (396)
[libx264 @ 0x60e7f80] VBV bitrate (10000) > level limit (768)
[libx264 @ 0x60e7f80] VBV buffer (10000) > level limit (2000)
[libx264 @ 0x60e7f80] MB rate (12227) > level limit (11880)
[libx264 @ 0x60e7f80] using cpu capabilities: MMX2 SSE2Fast SSSE3 SSE4.2 AVX
[libx264 @ 0x60e7f80] profile Constrained Baseline, level 1.3, 4:2:0, 8-bit
[libx264 @ 0x60e7f80] 264 - core 161 r3040 35417dc - H.264/MPEG-4 AVC codec - Copyleft 2003-2021 - http://www.videolan.org/x264.html - options: cabac=0 ref=1 deblock=1:0:0 analyse=0x1:0 me=hex subme=1 psy=1 psy_rd=1.00:0.00 mixed_ref=0 me_range=16 chroma_me=1 trellis=0 8x8dct=0 cqm=0 deadzone=21,11 fast_pskip=1 chroma_qp_offset=0 threads=32 lookahead_threads=2 sliced_threads=0 nr=0 decimate=1 interlaced=0 bluray_compat=0 constrained_intra=0 bframes=0 weightp=0 keyint=300 keyint_min=25 scenecut=40 intra_refresh=0 rc_lookahead=30 rc=abr mbtree=1 bitrate=1000 ratetol=1.0 qcomp=0.60 qpmin=10 qpmax=51 qpstep=4 vbv_maxrate=10000 vbv_bufsize=10000 nal_hrd=none filler=0 ip_ratio=1.41 aq=1:1.00
Output #0, mp4, to '/home/yiaapc5/public_html/f_data/data_userfiles/user_media/2601493340/v/39811d3f3a1146fb7a129b667b09074f.mob.nomob.mp4':
  Metadata:
    major_brand     : mp42
    minor_version   : 0
    compatible_brands: isom
    encoder         : Lavf58.65.101
    Stream #0:0(eng): Video: h264 (avc1 / 0x31637661), yuv420p(tv, progressive), 480x272 [SAR 136:135 DAR 16:9], q=2-31, 1000 kb/s, 23.98 fps, 24k tbn (default)
    Metadata:
      creation_time   : 2013-01-17T19:28:20.000000Z
      handler_name    : MP4 Video Media Handler
      vendor_id       : [0][0][0][0]
      encoder         : Lavc58.119.100 libx264
    Side data:
      cpb: bitrate max/min/avg: 10000000/0/1000000 buffer size: 10000000 vbv_delay: N/A
    Stream #0:1(eng): Audio: aac (LC) (mp4a / 0x6134706D), 44100 Hz, stereo, fltp, 61 kb/s (default)
    Metadata:
      creation_time   : 2013-01-17T19:28:20.000000Z
      handler_name    : MP4 Sound Media Handler
      vendor_id       : [0][0][0][0]
      encoder         : Lavc58.119.100 aac
frame=    2 fps=0.0 q=0.0 size=       0kB time=00:00:00.53 bitrate=   0.7kbits/s dup=1 drop=0 speed=  15x    frame=  206 fps=0.0 q=22.0 size=     768kB time=00:00:09.10 bitrate= 691.2kbits/s dup=1 drop=0 speed=  17x    frame=  429 fps=414 q=22.0 size=    1792kB time=00:00:18.27 bitrate= 803.3kbits/s dup=1 drop=0 speed=17.6x    frame=  629 fps=409 q=20.0 size=    2816kB time=00:00:26.65 bitrate= 865.4kbits/s dup=1 drop=0 speed=17.3x    frame=  837 fps=411 q=20.0 size=    3840kB time=00:00:35.36 bitrate= 889.5kbits/s dup=1 drop=0 speed=17.4x    frame= 1049 fps=413 q=22.0 size=    5376kB time=00:00:44.16 bitrate= 997.2kbits/s dup=1 drop=0 speed=17.4x    frame= 1262 fps=415 q=21.0 size=    6400kB time=00:00:53.10 bitrate= 987.3kbits/s dup=1 drop=0 speed=17.5x    frame= 1469 fps=415 q=21.0 size=    7424kB time=00:01:01.67 bitrate= 986.1kbits/s dup=1 drop=0 speed=17.4x    frame= 1679 fps=415 q=20.0 size=    8448kB time=00:01:10.42 bitrate= 982.7kbits/s dup=1 drop=0 speed=17.4x    frame= 1879 fps=414 q=20.0 size=    9472kB time=00:01:18.83 bitrate= 984.3kbits/s dup=1 drop=0 speed=17.4x    frame= 2081 fps=413 q=19.0 size=   10496kB time=00:01:27.30 bitrate= 984.8kbits/s dup=1 drop=0 speed=17.3x    frame= 2282 fps=412 q=19.0 size=   11520kB time=00:01:35.64 bitrate= 986.7kbits/s dup=1 drop=0 speed=17.3x    frame= 2489 fps=412 q=20.0 size=   12800kB time=00:01:44.21 bitrate=1006.2kbits/s dup=1 drop=0 speed=17.2x    frame= 2684 fps=410 q=21.0 size=   14336kB time=00:01:52.52 bitrate=1043.7kbits/s dup=1 drop=0 speed=17.2x    frame= 2888 fps=410 q=21.0 size=   15360kB time=00:02:00.88 bitrate=1040.9kbits/s dup=1 drop=0 speed=17.2x    frame= 2953 fps=410 q=-1.0 Lsize=   15939kB time=00:02:03.13 bitrate=1060.4kbits/s dup=1 drop=0 speed=17.1x    
video:14953kB audio:915kB subtitle:0kB other streams:0kB global headers:0kB muxing overhead: 0.447918%
[libx264 @ 0x60e7f80] frame I:72    Avg QP:12.17  size: 22406
[libx264 @ 0x60e7f80] frame P:2881  Avg QP:14.80  size:  4755
[libx264 @ 0x60e7f80] mb I  I16..4: 19.6%  0.0% 80.4%
[libx264 @ 0x60e7f80] mb P  I16..4:  6.7%  0.0%  0.0%  P16..4: 71.7%  0.0%  0.0%  0.0%  0.0%    skip:21.5%
[libx264 @ 0x60e7f80] final ratefactor: 14.93
[libx264 @ 0x60e7f80] coded y,uvDC,uvAC intra: 79.3% 69.2% 50.2% inter: 40.7% 25.2% 5.6%
[libx264 @ 0x60e7f80] i16 v,h,dc,p: 34% 16% 23% 26%
[libx264 @ 0x60e7f80] i4 v,h,dc,ddl,ddr,vr,hd,vl,hu: 26% 19% 11%  8%  7%  7%  7%  7%  9%
[libx264 @ 0x60e7f80] i8c dc,h,v,p: 39% 20% 26% 15%
[libx264 @ 0x60e7f80] kb/s:994.51
[aac @ 0x6129fc0] Qavg: 837.270
